<svg width="1440" height="317" viewBox="0 0 1440 317" fill="none" xmlns="http://www.w3.org/2000/svg">
<g opacity="0.3">
<path d="M-341.571 164.794L-423.524 226.048C-462.045 254.841 -441.681 316.098 -393.589 316.098H3705.63C3753.41 316.098 3773.97 255.495 3736.05 226.42L3662.07 169.691C3530.5 68.7999 3348.55 65.3963 3213.3 161.296C3082.48 254.054 2907.37 254.195 2776.4 161.648L2769.78 156.971C2636.76 62.9727 2458.83 63.4049 2326.26 158.049C2193.7 252.693 2014.21 252.024 1881.19 158.026C1748.16 64.0246 1568.64 63.26 1435.92 157.69C1302.72 252.46 1124 252.363 990.956 157.377C858.829 63.0473 681.606 62.1921 548.575 155.242L536.798 163.48C406.1 254.898 231.91 253.773 102.405 160.672C-30.6353 65.0303 -210.33 66.6985 -341.571 164.794Z" fill="white"/>
</g>
</svg>
